<svg width="334" height="289" viewBox="0 0 334 289" fill="none" xmlns="http://www.w3.org/2000/svg">
<path d="M4.09199 41.34V-4.29153e-06H14.112V41.34H4.09199ZM44.1893 16.32V-4.29153e-06H54.3893V41.34H44.1893V25.26H31.5893V41.34H21.5693V-4.29153e-06H31.5893V16.32H44.1893ZM71.8596 41.34H61.8396V-4.29153e-06H78.9396C88.7196 -4.29153e-06 93.0996 6.9 93.0996 13.8C93.0996 19.62 89.9196 25.44 83.1996 27.06L93.2796 41.34H81.6396L72.7596 27.54H71.8596V41.34ZM78.4596 8.75999H71.8596V18.9H78.4596C81.7596 18.9 82.9596 16.26 82.9596 13.8C82.9596 11.4 81.7596 8.75999 78.4596 8.75999ZM125.896 41.34H98.5357V-4.29153e-06H125.356V8.75999H108.556V16.68H123.316V25.26H108.556V32.58H125.896V41.34Z" fill="black"/>
<path d="M169.116 41.34H144.096V-4.29153e-06H154.236V32.58H169.116V41.34ZM200.711 41.34H173.351V-4.29153e-06H200.171V8.75999H183.371V16.68H198.131V25.26H183.371V32.58H200.711V41.34ZM214.094 8.75999H203.414V-4.29153e-06H234.794V8.75999H224.114V41.34H214.094V8.75999ZM237.083 33.96L254.783 8.69999H237.863V-4.29153e-06H267.923V7.37999L249.983 32.58H267.923V41.34H237.083V33.96ZM281.217 8.75999H270.537V-4.29153e-06H301.917V8.75999H291.237V41.34H281.217V8.75999ZM333.725 41.34H306.365V-4.29153e-06H333.185V8.75999H316.385V16.68H331.145V25.26H316.385V32.58H333.725V41.34ZM46.6145 95.1475L58.465 103.451C52.929 111.755 43.8465 117.118 33.1205 117.118C16.253 117.118 2.75899 103.365 2.75899 86.584C2.75899 69.7165 16.253 55.963 33.1205 55.963C43.8465 55.963 53.0155 61.326 58.5515 69.63C59.157 69.3705 56.043 71.36 52.929 73.5225L46.528 78.0205C43.76 73.5225 38.743 70.495 33.1205 70.495C24.2975 70.495 17.3775 77.6745 17.3775 86.584C17.3775 95.4935 24.2975 102.586 33.1205 102.586C38.916 102.586 43.76 99.6455 46.6145 95.1475ZM97.3062 80.2695V56.7415H112.011V116.34H97.3062V93.158H79.1412V116.34H64.6957V56.7415H79.1412V80.2695H97.3062ZM159.428 116.34L154.411 102.673H135.641L130.624 116.34H115.14L137.111 56.7415H152.854L174.739 116.34H159.428ZM144.896 70.5815L139.533 90.217H150.692L144.896 70.5815ZM208.732 56.7415H223.178V116.34H210.549L192.297 83.816V116.34H177.852V56.7415H190.913L208.732 88.833V56.7415ZM274.363 95.1475L286.213 103.451C280.677 111.755 271.595 117.118 260.869 117.118C244.001 117.118 230.507 103.365 230.507 86.584C230.507 69.7165 244.001 55.963 260.869 55.963C271.595 55.963 280.764 61.326 286.3 69.63C286.905 69.3705 283.791 71.36 280.677 73.5225L274.276 78.0205C271.508 73.5225 266.491 70.495 260.869 70.495C252.046 70.495 245.126 77.6745 245.126 86.584C245.126 95.4935 252.046 102.586 260.869 102.586C266.664 102.586 271.508 99.6455 274.363 95.1475ZM331.888 116.34H292.444V56.7415H331.11V69.3705H306.89V80.7885H328.169V93.158H306.89V103.711H331.888V116.34ZM9.23999 288.34L-1.51321e-05 258.024H7.65599L12.496 276.504L17.248 258.024H24.992L15.708 288.34H9.23999ZM47.643 288.34H27.579V258.024H47.247V264.448H34.927V270.256H45.751V276.548H34.927V281.916H47.643V288.34ZM59.1735 288.34H51.8255V258.024H64.3655C71.5375 258.024 74.7495 263.084 74.7495 268.144C74.7495 272.412 72.4175 276.68 67.4895 277.868L74.8815 288.34H66.3455L59.8335 278.22H59.1735V288.34ZM64.0135 264.448H59.1735V271.884H64.0135C66.4335 271.884 67.3135 269.948 67.3135 268.144C67.3135 266.384 66.4335 264.448 64.0135 264.448ZM77.1079 279.32H84.5439C84.6759 280.948 85.6879 282.268 88.2839 282.268C90.2199 282.268 92.0239 281.476 92.0239 279.54C92.0239 279.056 92.0239 278.088 88.9879 277.032L85.4239 275.844C78.6479 273.996 77.5039 269.728 77.5039 266.912C77.5039 261.412 81.9919 257.628 88.1079 257.628C94.0919 257.628 98.5359 261.104 98.5359 267.088H91.1879C91.1879 265.46 90.2639 264.272 88.0199 264.272C86.0399 264.272 84.8079 265.24 84.8079 266.692C84.8079 267.308 84.9839 268.364 87.6239 269.156L91.0999 270.256C99.0639 272.72 99.5039 277.34 99.5039 279.496C99.5039 286.184 93.3879 288.736 88.2839 288.736C81.4639 288.736 77.1079 285.084 77.1079 279.32ZM123.789 277.56L129.817 281.784C127.001 286.008 122.381 288.736 116.925 288.736C108.345 288.736 101.481 281.74 101.481 273.204C101.481 264.624 108.345 257.628 116.925 257.628C122.381 257.628 127.045 260.356 129.861 264.58C130.169 264.448 128.585 265.46 127.001 266.56L123.745 268.848C122.337 266.56 119.785 265.02 116.925 265.02C112.437 265.02 108.917 268.672 108.917 273.204C108.917 277.736 112.437 281.344 116.925 281.344C119.873 281.344 122.337 279.848 123.789 277.56ZM149.575 269.992V258.024H157.055V288.34H149.575V276.548H140.335V288.34H132.987V258.024H140.335V269.992H149.575ZM181.614 262.38L185.002 275.272L190.282 258.024H198.29L187.994 288.34H182.318L178.49 273.6L174.794 288.34H169.074L158.866 258.024H166.83L172.066 275.272L175.498 262.38H181.614ZM220.106 288.34H200.042V258.024H219.71V264.448H207.39V270.256H218.214V276.548H207.39V281.916H220.106V288.34ZM239.996 258.024H247.344V288.34H240.92L231.636 271.796V288.34H224.288V258.024H230.932L239.996 274.348V258.024ZM260.181 264.58V281.784H264.801C269.069 281.784 271.225 277.692 271.225 273.248C271.225 268.804 269.069 264.58 264.801 264.58H260.181ZM252.789 288.34V258.024H264.801C273.557 258.024 278.573 264.624 278.573 273.248C278.573 281.872 273.557 288.34 264.801 288.34H252.789ZM302.556 288.34H282.492V258.024H302.16V264.448H289.84V270.256H300.664V276.548H289.84V281.916H302.556V288.34ZM322.446 258.024H329.794V288.34H323.37L314.086 271.796V288.34H306.738V258.024H313.382L322.446 274.348V258.024Z" fill="#599BF1"/>
<path d="M22.311 152.259L44.529 176.34H28.728L16.308 161.85V176.34H4.78499V128.799H16.308V142.392L25.761 128.799H40.182L22.311 152.259ZM77.8431 176.34H46.379V128.799H77.2221V138.873H57.902V147.981H74.876V157.848H57.902V166.266H77.8431V176.34ZM84.4018 176.34V128.799H95.9248V176.34H84.4018ZM129.134 128.799H140.657V176.34H130.583L116.024 150.396V176.34H104.501V128.799H114.92L129.134 154.398V128.799ZM180.658 176.34H149.194V128.799H180.037V138.873H160.717V147.981H177.691V157.848H160.717V166.266H180.658V176.34ZM199.105 167.853L219.46 138.804H200.002V128.799H234.571V137.286L213.94 166.266H234.571V176.34H199.105V167.853ZM272.49 176.34H241.026V128.799H271.869V138.873H252.549V147.981H269.523V157.848H252.549V166.266H272.49V176.34ZM279.049 176.34V128.799H290.572V176.34H279.049ZM307.98 138.873H295.698V128.799H331.785V138.873H319.503V176.34H307.98V138.873ZM36.032 223.74L51.312 190.22H62.592L69.312 245.34H55.552L52.192 215.66L41.072 238.94H30.992L19.792 215.66L16.352 245.34H2.59198L9.39199 190.22H20.512L36.032 223.74ZM112.759 245.34H76.2789V190.22H112.039V201.9H89.6389V212.46H109.319V223.9H89.6389V233.66H112.759V245.34ZM150.523 211.98V190.22H164.123V245.34H150.523V223.9H133.723V245.34H120.363V190.22H133.723V211.98H150.523ZM187.417 245.34H174.057V190.22H196.857C209.897 190.22 215.737 199.42 215.737 208.62C215.737 216.38 211.497 224.14 202.537 226.3L215.977 245.34H200.457L188.617 226.94H187.417V245.34ZM196.217 201.9H187.417V215.42H196.217C200.617 215.42 202.217 211.9 202.217 208.62C202.217 205.42 200.617 201.9 196.217 201.9ZM236.768 235.5L260.368 201.82H237.808V190.22H277.888V200.06L253.968 233.66H277.888V245.34H236.768V235.5ZM306.493 246.06C295.053 246.06 284.733 237.98 284.733 225.26V190.22H298.173V225.26C298.173 230.14 302.333 233.5 306.493 233.5C310.653 233.5 314.813 230.14 314.813 225.26V190.22H328.253V225.26C328.253 237.98 317.933 246.06 306.493 246.06Z" fill="#0F0F0F"/>
</svg>
