<svg width="1082" height="322" viewBox="0 0 1082 322" fill="none" xmlns="http://www.w3.org/2000/svg">
<path d="M6.93795 78.3994V1.01087H25.6954V78.3994H6.93795ZM82.0002 31.5619V1.01087H101.095V78.3994H82.0002V48.2976H58.413V78.3994H39.6555V1.01087H58.413V31.5619H82.0002ZM133.799 78.3994H115.042V1.01087H147.053C165.361 1.01087 173.56 13.9277 173.56 26.8445C173.56 37.7395 167.607 48.6346 155.027 51.6672L173.897 78.3994H152.107L135.484 52.5658H133.799V78.3994ZM146.154 17.4096H133.799V36.3917H146.154C152.332 36.3917 154.578 31.4496 154.578 26.8445C154.578 22.3517 152.332 17.4096 146.154 17.4096ZM234.955 78.3994H183.737V1.01087H233.944V17.4096H202.494V32.2358H230.125V48.2976H202.494V62.0006H234.955V78.3994Z" fill="black"/>
<path d="M315.863 78.3994H269.025V1.01087H288.007V62.0006H315.863V78.3994ZM375.008 78.3994H323.79V1.01087H373.997V17.4096H342.547V32.2358H370.178V48.2976H342.547V62.0006H375.008V78.3994ZM400.061 17.4096H380.068V1.01087H438.812V17.4096H418.819V78.3994H400.061V17.4096ZM443.097 64.584L476.231 17.2973H444.557V1.01087H500.829V14.8262L467.245 62.0006H500.829V78.3994H443.097V64.584ZM525.715 17.4096H505.722V1.01087H564.465V17.4096H544.472V78.3994H525.715V17.4096ZM624.012 78.3994H572.794V1.01087H623.001V17.4096H591.551V32.2358H619.182V48.2976H591.551V62.0006H624.012V78.3994ZM710.648 50.881L726.036 61.6637C718.848 72.4464 707.054 79.4102 693.126 79.4102C671.224 79.4102 653.702 61.5514 653.702 39.7613C653.702 17.8589 671.224 -8.31284e-06 693.126 -8.31284e-06C707.054 -8.31284e-06 718.96 6.96383 726.148 17.7466C726.935 17.4096 722.891 19.9929 718.848 22.8009L710.536 28.6416C706.942 22.8009 700.427 18.8697 693.126 18.8697C681.67 18.8697 672.684 28.1923 672.684 39.7613C672.684 51.3302 681.67 60.5405 693.126 60.5405C700.652 60.5405 706.942 56.7216 710.648 50.881ZM776.471 31.5619V1.01087H795.566V78.3994H776.471V48.2976H752.884V78.3994H734.127V1.01087H752.884V31.5619H776.471ZM857.136 78.3994L850.622 60.6528H826.248L819.734 78.3994H799.628L828.158 1.01087H848.6L877.017 78.3994H857.136ZM838.267 18.9821L831.303 44.4787H845.792L838.267 18.9821ZM921.158 1.01087H939.915V78.3994H923.517L899.817 36.167V78.3994H881.06V1.01087H898.02L921.158 42.6816V1.01087ZM1006.38 50.881L1021.77 61.6637C1014.58 72.4464 1002.78 79.4102 988.857 79.4102C966.955 79.4102 949.433 61.5514 949.433 39.7613C949.433 17.8589 966.955 -8.31284e-06 988.857 -8.31284e-06C1002.78 -8.31284e-06 1014.69 6.96383 1021.88 17.7466C1022.67 17.4096 1018.62 19.9929 1014.58 22.8009L1006.27 28.6416C1002.67 22.8009 996.158 18.8697 988.857 18.8697C977.4 18.8697 968.415 28.1923 968.415 39.7613C968.415 51.3302 977.4 60.5405 988.857 60.5405C996.382 60.5405 1002.67 56.7216 1006.38 50.881ZM1081.08 78.3994H1029.86V1.01087H1080.06V17.4096H1048.61V32.2358H1076.25V48.2976H1048.61V62.0006H1081.08V78.3994ZM29.9376 320.399L2.66262e-05 222.176H24.8055L40.4871 282.051L55.8835 222.176H80.9741L50.8939 320.399H29.9376ZM154.364 320.399H89.3562V222.176H153.081V242.989H113.164V261.807H148.233V282.193H113.164V299.586H154.364V320.399ZM191.722 320.399H167.915V222.176H208.544C231.781 222.176 242.188 238.57 242.188 254.964C242.188 268.793 234.633 282.621 218.666 286.47L242.616 320.399H214.959L193.86 287.611H191.722V320.399ZM207.404 242.989H191.722V267.082H207.404C215.244 267.082 218.096 260.809 218.096 254.964C218.096 249.262 215.244 242.989 207.404 242.989ZM249.83 291.175H273.922C274.35 296.449 277.629 300.726 286.04 300.726C292.313 300.726 298.158 298.16 298.158 291.887C298.158 290.319 298.158 287.183 288.321 283.761L276.774 279.912C254.819 273.925 251.113 260.096 251.113 250.973C251.113 233.153 265.654 220.892 285.47 220.892C304.858 220.892 319.256 232.155 319.256 251.543H295.449C295.449 246.268 292.455 242.419 285.185 242.419C278.769 242.419 274.778 245.555 274.778 250.26C274.778 252.256 275.348 255.677 283.902 258.243L295.164 261.807C320.967 269.791 322.393 284.759 322.393 291.745C322.393 313.414 302.577 321.682 286.04 321.682C263.943 321.682 249.83 309.85 249.83 291.175ZM401.077 285.472L420.608 299.158C411.484 312.844 396.515 321.682 378.838 321.682C351.038 321.682 328.799 299.015 328.799 271.359C328.799 243.56 351.038 220.892 378.838 220.892C396.515 220.892 411.626 229.731 420.75 243.417C421.748 242.989 416.616 246.268 411.484 249.832L400.934 257.245C396.372 249.832 388.104 244.843 378.838 244.843C364.296 244.843 352.892 256.675 352.892 271.359C352.892 286.042 364.296 297.732 378.838 297.732C388.389 297.732 396.372 292.885 401.077 285.472ZM484.622 260.952V222.176H508.857V320.399H484.622V282.193H454.684V320.399H430.876V222.176H454.684V260.952H484.622ZM588.43 236.289L599.407 278.059L616.514 222.176H642.46L609.101 320.399H590.711L578.308 272.642L566.333 320.399H547.8L514.726 222.176H540.53L557.494 278.059L568.614 236.289H588.43ZM713.143 320.399H648.136V222.176H711.86V242.989H671.943V261.807H707.013V282.193H671.943V299.586H713.143V320.399ZM777.588 222.176H801.395V320.399H780.582L750.502 266.797V320.399H726.694V222.176H748.221L777.588 275.065V222.176ZM842.985 243.417V299.158H857.954C871.782 299.158 878.768 285.9 878.768 271.501C878.768 257.103 871.782 243.417 857.954 243.417H842.985ZM819.035 320.399V222.176H857.954C886.323 222.176 902.575 243.56 902.575 271.501C902.575 299.443 886.323 320.399 857.954 320.399H819.035ZM980.282 320.399H915.274V222.176H978.999V242.989H939.082V261.807H974.151V282.193H939.082V299.586H980.282V320.399ZM1044.73 222.176H1068.53V320.399H1047.72L1017.64 266.797V320.399H993.833V222.176H1015.36L1044.73 275.065V222.176Z" fill="#599BF1"/>
<path d="M38.3271 151.184L77.2762 193.399H49.5764L27.8036 167.998V193.399H7.60323V110.058H27.8036V133.887L44.3751 110.058H69.6557L38.3271 151.184ZM135.677 193.399H80.5194V110.058H134.589V127.718H100.72V143.685H130.476V160.982H100.72V175.739H135.677V193.399ZM147.175 193.399V110.058H167.375V193.399H147.175ZM225.592 110.058H245.792V193.399H228.132L202.61 147.918V193.399H182.409V110.058H200.674L225.592 154.934V110.058ZM315.917 193.399H260.759V110.058H314.828V127.718H280.96V143.685H310.716V160.982H280.96V175.739H315.917V193.399ZM348.254 178.521L383.937 127.597H349.826V110.058H410.427V124.936L374.26 175.739H410.427V193.399H348.254V178.521ZM476.903 193.399H421.745V110.058H475.814V127.718H441.945V143.685H471.701V160.982H441.945V175.739H476.903V193.399ZM488.4 193.399V110.058H508.601V193.399H488.4ZM539.118 127.718H517.587V110.058H580.849V127.718H559.318V193.399H539.118V127.718ZM634.247 160.74L657.35 110.058H674.406L684.566 193.399H663.761L658.681 148.523L641.867 183.723H626.626L609.692 148.523L604.491 193.399H583.686L593.967 110.058H610.781L634.247 160.74ZM750.258 193.399H695.1V110.058H749.169V127.718H715.301V143.685H745.057V160.982H715.301V175.739H750.258V193.399ZM807.358 142.959V110.058H827.921V193.399H807.358V160.982H781.956V193.399H761.756V110.058H781.956V142.959H807.358ZM863.141 193.399H842.941V110.058H877.414C897.131 110.058 905.961 123.968 905.961 137.879C905.961 149.612 899.55 161.345 886.003 164.611L906.324 193.399H882.858L864.955 165.579H863.141V193.399ZM876.447 127.718H863.141V148.16H876.447C883.099 148.16 885.519 142.838 885.519 137.879C885.519 133.04 883.099 127.718 876.447 127.718ZM937.759 178.521L973.442 127.597H939.332V110.058H999.933V124.936L963.766 175.739H999.933V193.399H937.759V178.521ZM1043.18 194.488C1025.89 194.488 1010.28 182.271 1010.28 163.038V110.058H1030.6V163.038C1030.6 170.417 1036.89 175.497 1043.18 175.497C1049.47 175.497 1055.76 170.417 1055.76 163.038V110.058H1076.08V163.038C1076.08 182.271 1060.48 194.488 1043.18 194.488Z" fill="#0F0F0F"/>
</svg>
